<?xml version="1.0" encoding="utf-8"?>
<!-- Generator: Adobe Illustrator 24.2.3, SVG Export Plug-In . SVG Version: 6.00 Build 0)  -->
<svg version="1.1" id="Layer_1" xmlns="http://www.w3.org/2000/svg" xmlns:xlink="http://www.w3.org/1999/xlink" x="0px" y="0px"
	 viewBox="0 0 223.7 211.4" style="enable-background:new 0 0 223.7 211.4;" xml:space="preserve">
<style type="text/css">
	.st0{fill:#FFFFFF;}
	.st1{fill:#92782D;}
	.st2{fill:#8AC441;}
	.st3{fill:#3DB34A;}
	.st4{fill:#056939;}
	.st5{fill:#B08E2F;}
	.st6{fill:#B4902F;}
	.st7{fill:#076233;}
</style>
<path class="st0" d="M12.4,165.8l7.6-20.6h5.1l7.6,20.6h-4.9l-1.4-4.2h-7.9l-1.5,4.2H12.4z M19.8,158h5.4l-2.7-8.1h0L19.8,158z"/>
<path class="st0" d="M53.1,151.6h-4.4c-0.2-1-0.8-1.8-1.6-2.4c-0.9-0.6-2-0.9-3.1-0.8c-1.2,0-2.4,0.3-3.4,0.9
	c-1,0.7-1.8,1.6-2.2,2.8c-0.4,1.2-0.6,2.4-0.6,3.6c0,1.3,0.2,2.6,0.7,3.7c0.5,1,1.2,1.8,2.1,2.3c1.7,1,3.8,1.1,5.7,0.3
	c0.8-0.3,1.4-0.9,1.9-1.6c0.5-0.7,0.9-1.5,1-2.4h-4.9v-3.5h8.9v11.1h-3l-0.5-2.6c-0.5,0.7-1.1,1.2-1.7,1.8c-0.6,0.4-1.3,0.8-2.1,1
	c-0.9,0.3-1.8,0.4-2.8,0.4c-1.2,0-2.4-0.2-3.5-0.6c-1.2-0.4-2.3-1.1-3.2-2c-1-1-1.8-2.1-2.3-3.4c-0.6-1.5-0.9-3.1-0.8-4.7
	c0-2,0.4-4,1.3-5.8c0.8-1.6,2.1-2.9,3.7-3.8c1.7-0.9,3.6-1.4,5.5-1.3c1.5,0,3.1,0.3,4.5,0.8c0.9,0.3,1.8,0.9,2.5,1.5
	c0.6,0.6,1.2,1.2,1.6,2C52.8,149.8,53,150.7,53.1,151.6z"/>
<path class="st0" d="M54.3,165.8l7.7-20.6h5.1l7.5,20.6h-4.9l-1.4-4.2h-7.9l-1.5,4.2H54.3z M61.7,158h5.4l-2.7-8.1h-0.1L61.7,158z"
	/>
<path class="st0" d="M87.7,165.8v-20.6h4.5v7.8h8.4v-7.8h4.4v20.6h-4.4v-9.2h-8.4v9.2H87.7z"/>
<path class="st0" d="M110.5,165.8v-20.6h15.8v3.5h-11.4v4.6h10.5v3.6h-10.5v5.4h11.9v3.6L110.5,165.8z"/>
<path class="st0" d="M129.7,165.8l7.6-20.6h5.1l7.6,20.6h-4.9l-1.4-4.2h-7.9l-1.5,4.2H129.7z M137.1,158h5.4l-2.7-8.1h-0.1
	L137.1,158z"/>
<path class="st0" d="M153.8,165.8v-20.6h4.4v16.9h10.6v3.7H153.8z"/>
<path class="st0" d="M164.7,148.8v-3.5h17.5v3.5h-6.5v17h-4.4v-17H164.7z"/>
<path class="st0" d="M185.7,165.8v-20.6h4.5v7.8h8.4v-7.8h4.4v20.6h-4.4v-9.2h-8.4v9.2H185.7z"/>
<path class="st1" d="M53.3,181.7v-8.6h6.1v1.5h-4.3v2h3.8v1.5h-3.8v3.6L53.3,181.7z"/>
<path class="st1" d="M64.3,177.4c0-0.8,0.2-1.6,0.5-2.4c0.3-0.7,0.8-1.2,1.4-1.6c0.6-0.4,1.4-0.5,2.1-0.5c0.8,0,1.6,0.2,2.2,0.6
	c0.6,0.4,1.2,0.9,1.5,1.6c0.3,0.7,0.5,1.5,0.5,2.3c0,0.8-0.2,1.6-0.5,2.4c-0.3,0.7-0.8,1.2-1.5,1.6c-0.7,0.4-1.4,0.5-2.2,0.5
	c-0.8,0-1.5-0.2-2.2-0.6c-0.6-0.4-1.1-0.9-1.4-1.6C64.4,179,64.2,178.2,64.3,177.4z M68.4,180.4c0.4,0,0.8-0.1,1.2-0.4
	c0.4-0.2,0.7-0.6,0.8-1c0.2-0.5,0.3-1,0.3-1.6c0-0.5-0.1-1.1-0.3-1.6c-0.2-0.4-0.5-0.8-0.8-1c-1-0.7-2.4-0.4-3,0.6
	c-0.1,0.1-0.2,0.3-0.2,0.4c-0.2,0.5-0.3,1-0.3,1.6c0,0.5,0.1,1,0.3,1.5c0.2,0.4,0.4,0.8,0.8,1.1C67.5,180.3,67.9,180.4,68.4,180.4
	L68.4,180.4z"/>
<path class="st1" d="M82.4,173.1h1.8v5.2c0,0.4,0,0.8-0.1,1.2c-0.1,0.4-0.2,0.7-0.4,1c-0.2,0.3-0.4,0.5-0.7,0.7
	c-0.3,0.2-0.6,0.3-1,0.4c-0.4,0.1-0.9,0.2-1.3,0.2c-0.5,0-0.9-0.1-1.4-0.2c-0.4-0.1-0.7-0.3-1-0.5c-0.3-0.2-0.5-0.5-0.6-0.7
	c-0.2-0.3-0.3-0.7-0.3-1c0-0.4-0.1-0.7-0.1-1.1v-5.2h1.8v5.4c0,0.3,0,0.6,0.1,0.9c0.1,0.2,0.3,0.5,0.5,0.6c0.3,0.2,0.7,0.3,1.1,0.3
	c0.3,0,0.7,0,1-0.2c0.2-0.1,0.4-0.3,0.5-0.5c0.1-0.3,0.2-0.7,0.2-1.1L82.4,173.1z"/>
<path class="st1" d="M89.9,181.7v-8.6h1.9l3.4,6v-6h1.7v8.6H95l-3.5-6.1v6.1H89.9z"/>
<path class="st1" d="M102.5,181.7v-8.6h3.7c0.9-0.1,1.9,0.3,2.5,0.9c0.7,0.9,1.1,2,1,3.2c0,0.6-0.1,1.2-0.2,1.8
	c-0.1,0.5-0.3,0.9-0.6,1.4c-0.2,0.3-0.5,0.6-0.8,0.8c-0.3,0.2-0.6,0.3-0.9,0.4c-0.5,0.1-1.1,0.1-1.6,0.1L102.5,181.7z M104.3,174.6
	v5.6h1.6c0.3,0,0.6,0,0.9-0.1c0.2-0.1,0.4-0.2,0.6-0.4c0.2-0.2,0.3-0.5,0.4-0.7c0.2-0.5,0.2-1.1,0.2-1.6c0-0.4,0-0.8-0.2-1.2
	c-0.1-0.3-0.2-0.6-0.4-0.9c-0.2-0.2-0.4-0.4-0.6-0.5c-0.3-0.1-0.7-0.2-1-0.1L104.3,174.6z"/>
<path class="st1" d="M113.4,181.7l3.1-8.6h2l3,8.6h-1.9l-0.6-1.8h-3.2l-0.6,1.8H113.4z M116.4,178.5h2.2l-1.1-3.4l0,0L116.4,178.5z"
	/>
<path class="st1" d="M123.9,174.6v-1.5h7v1.5h-2.6v7.1h-1.8v-7.1H123.9z"/>
<path class="st1" d="M135.8,181.7v-8.6h1.8v8.6H135.8z"/>
<path class="st1" d="M142.9,177.4c0-0.8,0.2-1.6,0.5-2.4c0.3-0.7,0.8-1.2,1.4-1.6c0.6-0.4,1.4-0.5,2.1-0.5c0.8,0,1.6,0.2,2.2,0.6
	c0.6,0.4,1.1,1,1.4,1.6c0.3,0.7,0.5,1.5,0.5,2.3c0,0.8-0.2,1.6-0.5,2.4c-0.3,0.7-0.8,1.2-1.5,1.6c-0.7,0.4-1.4,0.5-2.1,0.5
	c-0.8,0-1.5-0.2-2.1-0.6c-0.6-0.4-1.1-0.9-1.4-1.6C143,179,142.8,178.2,142.9,177.4z M147,180.4c0.4,0,0.8-0.1,1.2-0.4
	c0.4-0.2,0.7-0.6,0.8-1c0.2-0.5,0.3-1,0.3-1.6c0-0.5-0.1-1.1-0.3-1.6c-0.4-1.1-1.7-1.7-2.8-1.3c-0.6,0.2-1.1,0.7-1.3,1.3
	c-0.2,0.5-0.3,1-0.3,1.6c0,0.5,0.1,1,0.3,1.5c0.2,0.4,0.4,0.8,0.8,1.1C146.1,180.3,146.6,180.4,147,180.4L147,180.4z"/>
<path class="st1" d="M156.4,181.7v-8.6h1.9l3.4,6v-6h1.7v8.6h-1.8l-3.5-6.1v6.1H156.4z"/>
<rect x="12.9" y="138.7" class="st0" width="190.3" height="0.8"/>
<circle class="st2" cx="106.4" cy="93.2" r="1.1"/>
<path class="st2" d="M106.8,25.3c0,0,54.2,36.6,60.7,97.3l-60.8-29L106.8,25.3z"/>
<path class="st3" d="M106.7,25.3c0,0-55.5,34.7-61.9,95.5l61.8-27.9L106.7,25.3z"/>
<path class="st0" d="M105.6,40.6c0,0-42,25.3-46.3,73.5l46.3-21.3V40.6z"/>
<path class="st0" d="M106.8,40.6c0,0,41.9,26.2,46.3,74.4l-46.3-22.3V40.6z"/>
<path class="st4" d="M44.8,120.7c0,0,54.8,29.2,122.7,1.9L106,93.1L44.8,120.7z"/>
<path class="st0" d="M59.2,115.5c0,0,45.3,22.3,93.7,0.1l-46-22.1L59.2,115.5z"/>
<polygon class="st4" points="118.1,107.4 109.1,107.4 109.1,99.5 103.8,99.5 103.8,107.4 95.1,107.4 95.1,112.8 103.8,112.8 
	103.8,120.6 109.1,120.6 109.1,112.8 118.1,112.8 "/>
<polygon class="st0" points="112.8,82.4 109.8,87.9 119.9,92.8 119.5,85.3 "/>
<path class="st5" d="M119.9,93c0,0-0.1,0-0.1,0l-10.1-4.9c-0.1,0-0.1-0.1-0.1-0.1c0-0.1,0-0.1,0-0.2l3-5.4c0.1-0.1,0.2-0.2,0.3-0.1
	l6.7,2.8c0.1,0,0.1,0.1,0.1,0.2l0.4,7.5c0,0.1,0,0.1,0,0.2C120,93,119.9,93,119.9,93z M110.1,87.8l9.6,4.7l-0.4-7l-6.3-2.7
	L110.1,87.8z"/>
<path class="st6" d="M111.7,87.9c2.3-0.1,4.6-0.7,6.7-1.7l0.5,4.9L111.7,87.9z"/>
<polygon class="st0" points="140.7,84.5 137.6,78.2 132.5,76.4 113.1,82.4 119.5,85.3 120,92.7 "/>
<path class="st5" d="M119.8,93.1l-0.6-7.6l-6.8-3.1l20-6.2l5.2,1.8l3.3,6.6L119.8,93.1z M113.8,82.4l5.9,2.7l0.6,7.3l20.1-8l-3-6
	l-4.9-1.7L113.8,82.4z"/>
<polygon class="st6" points="127.8,88.7 121.3,90.9 121,86.1 124.1,85 123.3,84.2 119.6,85.5 119.3,85 135.3,79.2 134.5,77.8 
	135.3,77.6 137.1,78 137.8,78.7 135.5,79.7 137.6,85.1 "/>
<polygon class="st0" points="120.4,74.4 131.9,72 140.4,87.4 140.7,89.8 131.5,94.5 "/>
<path class="st5" d="M131.4,94.8L120,74.2l12-2.5l8.7,15.6L141,90L131.4,94.8z M120.7,74.6l10.8,19.7l8.9-4.5l-0.2-2.2l-8.5-15.2
	L120.7,74.6z"/>
<rect x="133.8" y="88.5" transform="matrix(0.9073 -0.4204 0.4204 0.9073 -24.5893 65.9321)" class="st5" width="7" height="0.5"/>
<polygon class="st6" points="133.8,92.1 134.5,91 139.8,88.6 139.8,89.4 "/>
<polygon class="st0" points="120.6,74.4 124.9,73.6 134.1,90.2 131.4,94.2 "/>
<path class="st5" d="M131.4,94.6l-11.2-20.3l4.8-1l9.4,16.9L131.4,94.6z M121,74.6l10.5,19.1l2.4-3.6l-9-16.4L121,74.6z"/>
<polygon class="st6" points="123.1,77.1 132.5,90.9 131.7,92.6 "/>
<path class="st7" d="M96.4,70.2c0-0.5-0.4-0.9-0.8-1c-0.4-0.2-1-0.1-1.2,0.3s-0.1,1,0.3,1.2c0.1,0.1,0.3,0.1,0.4,0.1
	c0.4,0.1,0.8,0,1.1-0.2c2.2,2.2,0,4.8-0.7,5.5c-0.2-0.1-0.5-0.1-0.7,0.1c-2.5,2.3-6.6,5.8-7.7,6.2c-0.9,0.3-1.8,0.2-2.7-0.2
	c-0.7-0.4-1.2-1.1-1.3-1.9c-0.5-2.6,1.1-8.4,1.1-8.5c0.1-0.3-0.1-0.6-0.3-0.7c0.2-1.3,1.1-4.9,4.2-4.1c0.1,0.4,0.4,0.7,0.8,0.8
	c0.4,0.2,1,0.1,1.2-0.3s0.1-1-0.3-1.2c-0.1-0.1-0.3-0.1-0.4-0.1c-0.4-0.1-0.9,0-1.2,0.3c-0.5-0.1-4.1-0.8-4.8,4.6
	c-0.2,0.1-0.4,0.2-0.4,0.4c-0.1,0.3-1.6,6.2-1.1,9c0.2,1.2,0.9,2.2,2,2.8h0.1c-0.6,1.7-1.7,3.2-3.1,4.3c-1.8,1.4-5,3.8-4.8,6.4
	c0.1,1.3,0.9,2.5,2.6,3.5c0.7,0.5,1.6,0.7,2.4,0.8c0.5,0,0.9-0.1,1.3-0.3c2.7-1.3,3.2-6.3,3.3-6.5c0,0,0.1-2.5,1.4-3.4
	c0.5-0.3,1.2-0.4,1.8-0.2c-0.2,0.7,0,1.5,0.5,2.1c0.1,0.2,0.4,0.2,0.5,0.1c0.2-0.1,0.2-0.4,0.1-0.5c-0.6-0.8-0.5-1.8,0.3-2.4
	c0.8-0.6,1.8-0.5,2.4,0.3c0.6,0.8,0.5,1.8-0.3,2.4c-0.3,0.2-0.6,0.4-1,0.4c-0.2,0-0.4,0.2-0.4,0.4c0,0,0,0,0,0
	c0,0.2,0.2,0.4,0.4,0.3l0,0c1.4-0.1,2.4-1.2,2.4-2.6c0-0.2,0-0.4-0.1-0.6c-0.2-0.6-0.6-1.2-1.2-1.5c-1.1-0.6-2.5-0.3-3.2,0.8
	c-0.9-0.4-1.9-0.2-2.7,0.3c-1.7,1.2-1.8,4-1.8,4.1s-0.6,4.7-2.8,5.7c-1,0.4-2.1,0.2-2.9-0.4c-1.4-0.8-2-1.7-2.1-2.7
	c-0.1-2.1,2.9-4.4,4.5-5.6c1.6-1.2,2.8-2.8,3.4-4.7c0.4,0.1,0.8,0.1,1.2,0.1c0.5,0,1.1-0.1,1.6-0.3c1.5-0.6,7.3-5.8,8-6.4
	c0.2-0.2,0.3-0.4,0.2-0.7C99.1,73.3,97,70.9,96.4,70.2z"/>
<path class="st0" d="M52.6,120.3l0.6,0.1c0,0.2,0,0.4,0.1,0.5c0.1,0.1,0.2,0.2,0.4,0.3c0.1,0.1,0.3,0.1,0.5,0c0.1,0,0.2-0.1,0.2-0.3
	c0-0.1,0-0.1,0-0.2c0-0.1-0.1-0.2-0.2-0.2c-0.1-0.1-0.3-0.2-0.4-0.3c-0.2-0.1-0.4-0.3-0.5-0.5c-0.1-0.2-0.1-0.5-0.1-0.7
	c0.1-0.1,0.2-0.3,0.3-0.4c0.1-0.1,0.3-0.2,0.5-0.2c0.2,0,0.4,0,0.6,0.1c0.3,0.1,0.5,0.3,0.7,0.5c0.1,0.2,0.1,0.5,0.1,0.8l-0.6-0.2
	c0-0.1,0-0.3,0-0.4c-0.1-0.1-0.2-0.2-0.3-0.2c-0.1,0-0.3,0-0.4,0c-0.1,0-0.1,0.1-0.2,0.2c0,0.1,0,0.2,0,0.2c0.1,0.2,0.3,0.3,0.5,0.4
	c0.2,0.1,0.4,0.3,0.5,0.4c0.1,0.1,0.2,0.3,0.2,0.4c0,0.2,0,0.3,0,0.5c-0.1,0.2-0.2,0.3-0.3,0.4c-0.1,0.1-0.3,0.2-0.5,0.2
	c-0.2,0-0.4,0-0.7-0.1c-0.3-0.1-0.6-0.3-0.7-0.5C52.6,121,52.6,120.7,52.6,120.3z"/>
<path class="st0" d="M56.5,121.9l0.5,0.3c-0.1,0.2-0.3,0.3-0.5,0.4c-0.2,0.1-0.4,0.1-0.6,0c-0.3-0.1-0.6-0.3-0.7-0.6
	c-0.1-0.3-0.1-0.6,0-0.8c0.1-0.3,0.3-0.6,0.5-0.8c0.2-0.2,0.5-0.2,0.8-0.1c0.3,0.1,0.5,0.3,0.6,0.6c0.1,0.4,0.1,0.7-0.1,1.1
	l-1.4-0.4c-0.1,0.1-0.1,0.3,0,0.4c0,0.1,0.1,0.2,0.3,0.2c0.1,0,0.2,0,0.2,0C56.3,122.1,56.4,122,56.5,121.9z M56.7,121.3
	c0-0.1,0-0.3,0-0.4c0-0.1-0.1-0.2-0.2-0.2c-0.1-0.1-0.2-0.1-0.3,0c-0.1,0.1-0.2,0.2-0.2,0.3L56.7,121.3z"/>
<path class="st0" d="M57.8,123.1l-0.5-0.2l0.7-2.2l0.5,0.2l-0.1,0.3c0.1-0.1,0.2-0.2,0.3-0.2c0.1,0,0.2,0,0.3,0
	c0.1,0,0.2,0.1,0.3,0.2l-0.3,0.5c-0.1-0.1-0.1-0.1-0.2-0.2c-0.1,0-0.1,0-0.2,0c-0.1,0-0.2,0.1-0.2,0.2c-0.1,0.2-0.2,0.5-0.3,0.7
	L57.8,123.1z"/>
<path class="st0" d="M59.4,123.6l-0.2-2.5l0.6,0.2v1.3v0.5c0-0.1,0.1-0.1,0.1-0.2l0.1-0.2l0.7-1l0.6,0.2l-1.5,2L59.4,123.6z"/>
<path class="st0" d="M61.1,124.1l0.6-2.2l0.5,0.2l-0.6,2.2L61.1,124.1z M61.8,121.5L62,121l0.5,0.2l-0.2,0.6L61.8,121.5z"/>
<path class="st0" d="M64.4,123.3h-0.6c0-0.1,0-0.2-0.1-0.3c-0.1-0.1-0.1-0.1-0.2-0.2c-0.1,0-0.3,0-0.4,0.1c-0.1,0.1-0.2,0.3-0.3,0.5
	c-0.1,0.2-0.1,0.4,0,0.6c0.1,0.2,0.3,0.3,0.6,0.2c0.1-0.1,0.2-0.2,0.2-0.3l0.5,0.3c-0.1,0.2-0.3,0.4-0.5,0.5c-0.2,0.1-0.5,0.1-0.7,0
	c-0.3-0.1-0.5-0.3-0.6-0.5c-0.1-0.3-0.1-0.6,0-0.9c0.1-0.3,0.2-0.6,0.5-0.8c0.2-0.2,0.5-0.2,0.8-0.1
	C64.3,122.4,64.6,122.9,64.4,123.3L64.4,123.3z"/>
<path class="st0" d="M65.9,124.6l0.5,0.2c-0.1,0.2-0.3,0.3-0.5,0.4c-0.2,0.1-0.4,0.1-0.6,0c-0.3-0.1-0.6-0.3-0.7-0.6
	c-0.1-0.3-0.1-0.6,0-0.8c0.1-0.3,0.2-0.6,0.5-0.8c0.5-0.3,1.1-0.1,1.4,0.3c0,0,0,0,0,0.1c0.1,0.3,0.1,0.7,0,1.1l-1.4-0.4
	c0,0.1,0,0.3,0,0.4c0.1,0.1,0.2,0.2,0.3,0.2c0.1,0,0.2,0,0.2,0C65.7,124.8,65.8,124.7,65.9,124.6z M66,124c0.1-0.1,0.1-0.3,0-0.4
	c0-0.1-0.1-0.2-0.3-0.2c-0.1,0-0.2,0-0.3,0.1c-0.1,0.1-0.2,0.2-0.2,0.4L66,124z"/>
<path class="st0" d="M68.3,126l-0.1-2.4l0.5,0.1v1.6l0.7-1.4L70,124v1.6l0.8-1.4l0.6,0.1l-1.3,2.1l-0.5-0.1v-1.5l-0.7,1.4L68.3,126z
	"/>
<path class="st0" d="M71,126.6l0.5-2.3l0.6,0.1l-0.5,2.3L71,126.6z M71.6,124l0.1-0.6l0.6,0.1l-0.1,0.6L71.6,124z"/>
<path class="st0" d="M73.6,124.8l-0.1,0.5l-0.4-0.1l-0.2,0.9c0,0.1,0,0.2-0.1,0.3c0,0,0,0.1,0,0.1c0,0,0.1,0,0.1,0
	c0.1,0,0.2,0,0.2,0l-0.1,0.5c-0.2,0-0.3,0-0.5,0c-0.1,0-0.2-0.1-0.3-0.1c-0.1,0-0.1-0.1-0.2-0.2c0-0.1,0-0.2,0-0.3
	c0-0.1,0-0.3,0.1-0.4l0.2-1h-0.3l0.1-0.5h0.3l0.1-0.4l0.6-0.2l-0.2,0.8L73.6,124.8z"/>
<path class="st0" d="M74.8,124.2l-0.2,1.2c0.2-0.2,0.5-0.3,0.7-0.2c0.1,0,0.2,0.1,0.3,0.2c0.1,0.1,0.1,0.1,0.2,0.2
	c0,0.1,0,0.2,0,0.3c0,0.2,0,0.3-0.1,0.5l-0.3,1.3l-0.6-0.1l0.3-1.2c0-0.1,0.1-0.3,0.1-0.5c0-0.1,0-0.1-0.1-0.2
	c-0.1-0.1-0.1-0.1-0.2-0.1c-0.1,0-0.2,0-0.3,0c-0.1,0-0.2,0.1-0.2,0.2c-0.1,0.1-0.1,0.3-0.1,0.4l-0.2,1.1l-0.6-0.1l0.7-3.1
	L74.8,124.2z"/>
<path class="st0" d="M77.2,127.9l0.6-3.2l0.6,0.1l-0.6,3.2L77.2,127.9z"/>
<path class="st0" d="M80.3,128.5l-0.6-0.1l0.2-1.2c0-0.2,0-0.3,0-0.5c0-0.1,0-0.1-0.1-0.2c0,0-0.1-0.1-0.2-0.1c-0.1,0-0.2,0-0.3,0
	c-0.1,0-0.2,0.1-0.2,0.2c-0.1,0.2-0.1,0.3-0.1,0.5l-0.2,1l-0.6-0.1l0.4-2.3l0.5,0.1l-0.1,0.3c0.2-0.2,0.5-0.3,0.8-0.3
	c0.1,0,0.2,0.1,0.3,0.1c0.1,0.1,0.2,0.1,0.2,0.2c0,0.1,0.1,0.2,0.1,0.3c0,0.1,0,0.3,0,0.4L80.3,128.5z"/>
<path class="st0" d="M82.3,126.5l-0.1,0.5l-0.4-0.1l-0.2,0.9c0,0.1,0,0.2,0,0.3c0,0,0,0.1,0,0.1c0,0,0.1,0,0.1,0c0.1,0,0.2,0,0.2,0
	v0.5c-0.1,0-0.3,0-0.4,0c-0.1,0-0.2-0.1-0.3-0.1c-0.1,0-0.1-0.1-0.2-0.2c0-0.1,0-0.2,0-0.3c0-0.1,0-0.3,0-0.4l0.2-1H81l0.1-0.5h0.3
	l0.1-0.4l0.6-0.3l-0.2,0.8L82.3,126.5z"/>
<path class="st0" d="M83.6,128.3l0.5,0.2c-0.1,0.2-0.2,0.3-0.4,0.4c-0.2,0.1-0.4,0.1-0.6,0.1c-0.3,0-0.6-0.2-0.8-0.5
	c-0.1-0.3-0.1-0.6-0.1-0.8c0-0.3,0.2-0.6,0.4-0.8c0.2-0.2,0.5-0.3,0.8-0.2c0.3,0,0.5,0.2,0.7,0.5c0.1,0.3,0.2,0.7,0.1,1.1l-1.4-0.2
	c0,0.2,0,0.3,0.1,0.5c0.1,0.1,0.2,0.2,0.3,0.2c0.1,0,0.2,0,0.2,0C83.5,128.5,83.6,128.4,83.6,128.3z M83.8,127.7
	c0-0.1,0-0.3-0.1-0.4c-0.1-0.1-0.2-0.2-0.3-0.2c-0.1,0-0.2,0-0.3,0.1c-0.1,0.1-0.2,0.2-0.2,0.4L83.8,127.7z"/>
<path class="st0" d="M84.5,129.4l0.6,0.2c0,0.1,0,0.1,0,0.2c0.1,0.1,0.1,0.1,0.2,0.1c0.1,0,0.2,0,0.3,0c0.1,0,0.1-0.1,0.1-0.1
	c0-0.1,0.1-0.2,0.1-0.3v-0.3c-0.2,0.2-0.4,0.3-0.7,0.3c-0.3,0-0.5-0.2-0.6-0.5c-0.1-0.3-0.1-0.5-0.1-0.8c0-0.3,0.2-0.6,0.4-0.9
	c0.2-0.2,0.4-0.2,0.7-0.2c0.3,0,0.5,0.2,0.6,0.5v-0.3l0.5,0.1l-0.3,2.1c0,0.2-0.1,0.4-0.2,0.6c-0.1,0.1-0.1,0.2-0.2,0.3
	c-0.1,0.1-0.2,0.1-0.3,0.1c-0.2,0-0.3,0-0.5,0c-0.3,0-0.5-0.1-0.7-0.3c-0.1-0.1-0.2-0.3-0.2-0.5C84.3,129.5,84.5,129.4,84.5,129.4z
	 M85.2,128.1c-0.1,0.2-0.1,0.4,0,0.6c0.1,0.1,0.2,0.2,0.3,0.2c0.1,0,0.3,0,0.4-0.1c0.1-0.1,0.2-0.3,0.2-0.5c0-0.2,0-0.4-0.1-0.6
	c-0.1-0.2-0.3-0.3-0.5-0.2c0,0-0.1,0.1-0.1,0.1C85.3,127.8,85.2,127.9,85.2,128.1z"/>
<path class="st0" d="M87.6,129.7l-0.6-0.1l0.3-2.3l0.5,0.1v0.3c0.1-0.1,0.2-0.2,0.3-0.3c0.1,0,0.2,0,0.3,0c0.1,0,0.3,0.1,0.3,0.2
	l-0.3,0.5c-0.1-0.1-0.2-0.1-0.3-0.1c-0.1,0-0.1,0-0.2,0c-0.1,0.1-0.1,0.1-0.2,0.2c-0.1,0.2-0.1,0.5-0.2,0.8L87.6,129.7z"/>
<path class="st0" d="M88.7,129.9l0.3-2.3l0.6,0.1l-0.3,2.3L88.7,129.9z M89.1,127.2l0.1-0.6l0.6,0.1l-0.1,0.6L89.1,127.2z"/>
<path class="st0" d="M91.2,127.8l-0.1,0.5h-0.4l-0.1,0.9c0,0.1,0,0.2,0,0.3c0,0,0,0.1,0,0.1c0,0,0.1,0,0.1,0h0.2v0.5
	c-0.2,0-0.3,0-0.5,0c-0.1,0-0.2,0-0.3-0.1c-0.1,0-0.1-0.1-0.2-0.2c0-0.1-0.1-0.2-0.1-0.2c0-0.1,0-0.3,0-0.4l0.1-1h-0.3l0.1-0.5h0.3
	v-0.5l0.6-0.3l-0.1,0.8L91.2,127.8z"/>
<path class="st0" d="M91.3,127.8l0.6,0.1l0.3,1.7l0.7-1.6l0.6,0.1l-1,2.1l-0.2,0.4c0,0.1-0.1,0.2-0.2,0.3c0,0.1-0.1,0.1-0.2,0.1
	c-0.1,0-0.1,0.1-0.2,0.1c-0.1,0-0.2,0-0.3,0c-0.1,0-0.2,0-0.3-0.1v-0.5c0.1,0,0.2,0,0.2,0.1c0.1,0,0.2,0,0.3-0.1
	c0.1-0.1,0.2-0.2,0.2-0.3L91.3,127.8z"/>
<path class="st0" d="M93.3,129.8l0.6,0.1v0.4c0,0.1,0,0.3-0.1,0.4c0,0.1-0.1,0.2-0.2,0.3c-0.1,0.1-0.2,0.1-0.3,0.2l-0.1-0.3
	c0.1,0,0.2-0.1,0.3-0.1c0.1-0.1,0.1-0.2,0.1-0.3h-0.3L93.3,129.8z"/>
<path class="st0" d="M95.7,130.7l0.3-3.2l1,0.1c0.2,0,0.5,0,0.7,0.1c0.1,0.1,0.3,0.2,0.3,0.3c0.1,0.2,0.1,0.4,0.1,0.6
	c0,0.2-0.1,0.3-0.1,0.5c-0.1,0.1-0.2,0.2-0.3,0.3c-0.1,0.1-0.2,0.1-0.3,0.1c-0.2,0-0.4,0-0.6,0h-0.4l-0.1,1.2L95.7,130.7z
	 M96.5,128.1l-0.1,0.9h0.3c0.2,0,0.3,0,0.5,0c0.1,0,0.1-0.1,0.2-0.1c0.1-0.1,0.1-0.2,0.1-0.3c0-0.1,0-0.2-0.1-0.3
	c-0.1-0.1-0.1-0.1-0.2-0.2c-0.1,0-0.3-0.1-0.4-0.1L96.5,128.1z"/>
<path class="st0" d="M99,131l-0.6-0.1l0.2-2.3l0.5,0.1v0.3c0.1-0.1,0.2-0.2,0.3-0.3c0.1,0,0.2-0.1,0.3-0.1c0.1,0,0.3,0.1,0.4,0.1
	l-0.2,0.5c-0.1-0.1-0.2-0.1-0.3-0.1c-0.1,0-0.1,0-0.2,0c-0.1,0.1-0.1,0.2-0.2,0.3c-0.1,0.3-0.1,0.5-0.1,0.8L99,131z"/>
<path class="st0" d="M100,129.9c0-0.2,0.1-0.4,0.2-0.6c0.1-0.2,0.2-0.3,0.4-0.4c0.5-0.2,1-0.1,1.3,0.3c0.2,0.3,0.3,0.6,0.3,0.9
	c0,0.3-0.1,0.6-0.4,0.9c-0.2,0.2-0.5,0.3-0.8,0.3c-0.2,0-0.4-0.1-0.6-0.2c-0.2-0.1-0.3-0.3-0.4-0.4C100,130.3,100,130.1,100,129.9z
	 M100.6,129.9c0,0.2,0,0.4,0.1,0.5c0.1,0.1,0.2,0.2,0.4,0.2c0.1,0,0.3,0,0.4-0.2c0.1-0.1,0.2-0.3,0.2-0.5c0-0.2,0-0.4-0.1-0.5
	c-0.2-0.2-0.5-0.2-0.7-0.1c0,0,0,0-0.1,0.1C100.7,129.6,100.6,129.7,100.6,129.9L100.6,129.9z"/>
<path class="st0" d="M102.5,128.9h0.3v-0.2c0-0.1,0-0.3,0.1-0.4c0.1-0.1,0.1-0.2,0.2-0.2c0.1-0.1,0.3-0.1,0.4-0.1
	c0.2,0,0.3,0,0.5,0.1l-0.1,0.4c-0.1,0-0.2,0-0.3-0.1c-0.1,0-0.1,0-0.2,0.1c0,0.1-0.1,0.2-0.1,0.2v0.2h0.4v0.5h-0.4l-0.1,1.8h-0.6
	l0.1-1.8h-0.3L102.5,128.9z"/>
<path class="st0" d="M105.3,130.6l0.6,0.1c-0.1,0.2-0.2,0.4-0.4,0.5c-0.2,0.1-0.4,0.2-0.6,0.1c-0.3,0-0.6-0.2-0.8-0.4
	c-0.1-0.2-0.2-0.5-0.2-0.8c0-0.3,0.1-0.6,0.3-0.9c0.2-0.2,0.4-0.3,0.7-0.3c0.3,0,0.6,0.1,0.7,0.4c0.2,0.3,0.3,0.7,0.2,1.1l-1.4-0.1
	c0,0.2,0,0.3,0.1,0.4c0.1,0.1,0.2,0.2,0.3,0.2c0.1,0,0.2,0,0.2-0.1C105.2,130.8,105.3,130.7,105.3,130.6z M105.3,130
	c0-0.1,0-0.3-0.1-0.4c-0.1-0.1-0.2-0.2-0.3-0.1c-0.1,0-0.2,0-0.3,0.1c-0.1,0.1-0.1,0.2-0.1,0.4L105.3,130z"/>
<path class="st0" d="M106.1,130.7l0.6-0.1c0,0.1,0.1,0.2,0.1,0.3c0.1,0.1,0.2,0.1,0.3,0.1c0.1,0,0.2,0,0.3-0.1
	c0.1,0,0.1-0.1,0.1-0.2c0,0,0-0.1,0-0.1c-0.1,0-0.1-0.1-0.2-0.1c-0.3-0.1-0.6-0.2-0.9-0.3c-0.2-0.1-0.3-0.3-0.2-0.5
	c0-0.2,0.1-0.4,0.2-0.5c0.2-0.1,0.4-0.2,0.7-0.2c0.2,0,0.5,0.1,0.7,0.2c0.1,0.1,0.2,0.3,0.3,0.5l-0.5,0.1c0-0.1-0.1-0.2-0.1-0.2
	c-0.1-0.1-0.2-0.1-0.3-0.1c-0.1,0-0.2,0-0.3,0.1c0,0-0.1,0.1-0.1,0.1c0,0,0,0.1,0,0.1c0.2,0.1,0.3,0.2,0.5,0.2
	c0.2,0,0.4,0.2,0.6,0.3c0.1,0.1,0.2,0.3,0.2,0.5c0,0.2-0.1,0.4-0.3,0.5c-0.2,0.2-0.5,0.2-0.7,0.2c-0.2,0-0.5-0.1-0.7-0.2
	C106.3,131.1,106.2,130.9,106.1,130.7z"/>
<path class="st0" d="M108.5,130.8l0.6-0.1c0,0.1,0.1,0.2,0.1,0.3c0.1,0.1,0.2,0.1,0.3,0.1c0.1,0,0.2,0,0.3-0.1
	c0.1,0,0.1-0.1,0.1-0.2c0,0,0-0.1,0-0.1c-0.1,0-0.1-0.1-0.2-0.1c-0.3-0.1-0.6-0.2-0.9-0.3c-0.2-0.1-0.3-0.3-0.3-0.5
	c0-0.2,0.1-0.4,0.2-0.5c0.2-0.1,0.4-0.2,0.7-0.2c0.2,0,0.5,0,0.7,0.2c0.1,0.1,0.3,0.3,0.3,0.5l-0.5,0.1c0-0.1-0.1-0.2-0.1-0.2
	c-0.1-0.1-0.2-0.1-0.3-0.1c-0.1,0-0.2,0-0.3,0.1c0,0-0.1,0.1-0.1,0.1c0,0,0,0.1,0,0.1c0.2,0.1,0.3,0.1,0.5,0.2
	c0.2,0,0.4,0.1,0.6,0.3c0.1,0.1,0.2,0.3,0.2,0.5c0,0.2-0.1,0.4-0.3,0.5c-0.2,0.2-0.5,0.2-0.7,0.2c-0.2,0-0.5-0.1-0.7-0.2
	C108.6,131.2,108.5,131,108.5,130.8z"/>
<path class="st0" d="M111,131.5v-2.3h0.6v2.3H111z M111,128.8v-0.6h0.6v0.6H111z"/>
<path class="st0" d="M112,130.3c0-0.2,0-0.4,0.1-0.6c0.1-0.2,0.2-0.3,0.4-0.4c0.2-0.1,0.4-0.2,0.6-0.2c0.3,0,0.6,0.1,0.8,0.3
	c0.2,0.2,0.3,0.5,0.3,0.9c0,0.3-0.1,0.6-0.3,0.9c-0.2,0.2-0.5,0.4-0.8,0.4c-0.2,0-0.4,0-0.6-0.1c-0.2-0.1-0.3-0.2-0.4-0.4
	C112,130.8,112,130.5,112,130.3z M112.6,130.3c0,0.2,0,0.4,0.2,0.5c0.1,0.1,0.2,0.2,0.4,0.2c0.1,0,0.3-0.1,0.4-0.2
	c0.1-0.2,0.2-0.3,0.1-0.5c0-0.2,0-0.4-0.2-0.5c-0.1-0.1-0.2-0.2-0.4-0.2c-0.1,0-0.3,0.1-0.4,0.2
	C112.6,129.9,112.6,130.1,112.6,130.3L112.6,130.3z"/>
<path class="st0" d="M116.7,131.4h-0.6v-1.2c0-0.2,0-0.3,0-0.5c0-0.1-0.1-0.1-0.1-0.2c-0.1,0-0.1-0.1-0.2-0.1c-0.1,0-0.2,0-0.3,0.1
	c-0.1,0.1-0.1,0.1-0.2,0.2c0,0.2,0,0.4,0,0.5v1.1h-0.6l-0.1-2.3h0.5v0.3c0.1-0.2,0.4-0.4,0.7-0.4c0.1,0,0.2,0,0.3,0.1
	c0.1,0,0.2,0.1,0.2,0.2c0.1,0.1,0.1,0.2,0.1,0.3c0,0.1,0,0.3,0,0.4L116.7,131.4z"/>
<path class="st0" d="M117.6,129.8l-0.5-0.1c0-0.2,0.1-0.4,0.3-0.5c0.2-0.1,0.4-0.2,0.6-0.2c0.2,0,0.4,0,0.6,0.1
	c0.1,0,0.2,0.1,0.3,0.2c0.1,0.2,0.1,0.4,0.1,0.6v0.7c0,0.1,0,0.3,0,0.4c0,0.1,0.1,0.2,0.1,0.3h-0.6c0-0.1,0-0.1-0.1-0.2
	c0,0,0-0.1,0-0.1c-0.1,0.1-0.2,0.2-0.3,0.2c-0.1,0.1-0.2,0.1-0.3,0.1c-0.2,0-0.4,0-0.5-0.2c-0.1-0.1-0.2-0.3-0.2-0.5
	c0-0.1,0-0.2,0.1-0.4c0.1-0.1,0.1-0.2,0.2-0.2c0.1-0.1,0.3-0.1,0.4-0.2c0.2,0,0.4-0.1,0.5-0.2v-0.1c0-0.1,0-0.2-0.1-0.3
	c-0.1-0.1-0.2-0.1-0.3-0.1c-0.1,0-0.2,0-0.2,0.1C117.6,129.6,117.6,129.7,117.6,129.8z M118.4,130.2l-0.3,0.1
	c-0.1,0-0.2,0.1-0.3,0.1c-0.1,0-0.1,0.1-0.1,0.2c0,0.1,0,0.2,0.1,0.2c0.1,0.1,0.1,0.1,0.2,0.1c0.1,0,0.2,0,0.3-0.1
	c0.1-0.1,0.1-0.1,0.1-0.2c0-0.1,0-0.2,0-0.3V130.2z"/>
<path class="st0" d="M119.6,131.3l-0.2-3.2h0.6l0.2,3.2L119.6,131.3z"/>
<path class="st0" d="M120.6,128.6V128h0.6v0.6L120.6,128.6z M120.8,131.2l-0.2-2.3h0.6l0.2,2.3H120.8z"/>
<path class="st0" d="M121.7,130.5l0.6-0.1c0,0.1,0.1,0.2,0.2,0.3c0.1,0.1,0.2,0.1,0.3,0.1c0.1,0,0.2,0,0.3-0.1c0,0,0.1-0.1,0.1-0.2
	c0,0,0-0.1,0-0.1c-0.1,0-0.1-0.1-0.2-0.1c-0.3,0-0.6-0.1-0.9-0.2c-0.2-0.1-0.3-0.3-0.3-0.5c0-0.2,0.1-0.4,0.2-0.5
	c0.2-0.2,0.4-0.3,0.7-0.3c0.2,0,0.5,0,0.7,0.1c0.2,0.1,0.3,0.3,0.3,0.4l-0.5,0.1c0-0.1-0.1-0.2-0.1-0.2c-0.1,0-0.2-0.1-0.3-0.1
	c-0.1,0-0.2,0-0.3,0.1c0,0,0,0.1,0,0.1c0,0,0,0.1,0.1,0.1c0.2,0.1,0.4,0.1,0.5,0.1c0.2,0,0.5,0.1,0.7,0.2c0.1,0.1,0.2,0.3,0.2,0.4
	c0,0.2-0.1,0.4-0.2,0.6c-0.2,0.2-0.4,0.3-0.7,0.3c-0.2,0-0.5,0-0.7-0.1C121.9,130.9,121.8,130.7,121.7,130.5z"/>
<path class="st0" d="M124,128.6h0.5v0.3c0.1-0.2,0.4-0.4,0.6-0.4c0.1,0,0.3,0,0.4,0.1c0.1,0.1,0.2,0.1,0.3,0.3
	c0.1-0.1,0.2-0.2,0.3-0.3c0.1-0.1,0.2-0.1,0.3-0.1c0.1,0,0.3,0,0.4,0.1c0.1,0.1,0.2,0.2,0.3,0.3c0.1,0.1,0.1,0.3,0.1,0.5l0.2,1.5
	l-0.6,0.1l-0.1-1.3c0-0.1,0-0.3-0.1-0.4c-0.1-0.1-0.2-0.1-0.3-0.1c-0.1,0-0.2,0-0.2,0.1c-0.1,0.1-0.1,0.2-0.1,0.3c0,0.2,0,0.3,0,0.5
	l0.1,1.1l-0.6,0.1l-0.1-1.3c0-0.1,0-0.3-0.1-0.4c0-0.1-0.1-0.1-0.1-0.1c-0.1,0-0.1,0-0.2,0c-0.1,0-0.2,0-0.2,0.1
	c-0.1,0.1-0.1,0.1-0.1,0.2c0,0.2,0,0.3,0,0.5l0.1,1.1l-0.6,0.1L124,128.6z"/>
<path class="st0" d="M131.6,129.7l-0.3,0.5c-0.2-0.1-0.4-0.2-0.5-0.3c-0.1,0.1-0.2,0.2-0.3,0.3c-0.1,0.1-0.3,0.1-0.5,0.1
	c-0.3,0.1-0.6,0-0.9-0.2c-0.2-0.1-0.3-0.3-0.3-0.6c0-0.2,0-0.4,0.1-0.6c0.1-0.2,0.3-0.4,0.4-0.5c-0.1-0.1-0.2-0.2-0.3-0.3
	c-0.1-0.1-0.1-0.2-0.1-0.3c0-0.2,0-0.4,0.1-0.5c0.1-0.2,0.4-0.3,0.6-0.3c0.2,0,0.4,0,0.6,0.1c0.3,0.2,0.4,0.6,0.2,0.9
	c-0.1,0.2-0.2,0.3-0.4,0.5l0.5,0.5c0-0.1,0.1-0.3,0.1-0.4l0.5,0.1c0,0.2,0,0.3-0.1,0.4c0,0.1,0,0.2-0.1,0.2l0.3,0.2
	C131.5,129.6,131.5,129.6,131.6,129.7z M129.7,128.8c-0.1,0.1-0.2,0.2-0.3,0.3c0,0.1-0.1,0.2-0.1,0.3c0,0.1,0.1,0.2,0.2,0.3
	c0.1,0.1,0.2,0.1,0.3,0.1c0.1,0,0.2,0,0.3-0.1c0.1-0.1,0.2-0.1,0.2-0.2L129.7,128.8z M129.9,128.2l0.1-0.2c0.1-0.1,0.1-0.2,0.1-0.3
	c0-0.1,0-0.1-0.1-0.2c-0.1,0-0.2,0-0.2,0c-0.1,0-0.1,0-0.2,0.1c0,0.1-0.1,0.1-0.1,0.2c0,0.1,0.1,0.2,0.2,0.3L129.9,128.2z"/>
<path class="st0" d="M135.7,129.4l-0.6,0.1l-0.4-0.7l-1.2,0.2l-0.1,0.8l-0.6,0.1l0.6-3.4l0.6-0.1L135.7,129.4z M134.4,128.3
	l-0.6-1.1l-0.2,1.2L134.4,128.3z"/>
<path class="st0" d="M137.5,127.3l-0.5,0.2c0-0.1-0.1-0.2-0.2-0.3c-0.1,0-0.2,0-0.3,0c-0.1,0-0.2,0.1-0.3,0.2
	c-0.1,0.2-0.1,0.4,0,0.6c0,0.2,0.1,0.4,0.2,0.6c0.1,0.1,0.2,0.1,0.4,0.1c0.1,0,0.2-0.1,0.2-0.1c0.1-0.1,0.1-0.2,0.1-0.4h0.6
	c0,0.2-0.1,0.5-0.2,0.7c-0.2,0.2-0.4,0.3-0.6,0.3c-0.3,0.1-0.6,0-0.8-0.2c-0.3-0.2-0.4-0.5-0.4-0.8c-0.1-0.3,0-0.6,0.1-0.9
	c0.2-0.2,0.4-0.4,0.7-0.5c0.2-0.1,0.4,0,0.6,0.1C137.3,127,137.5,127.2,137.5,127.3z"/>
<path class="st0" d="M139.8,126.9l-0.5,0.2c0-0.1-0.1-0.2-0.2-0.2c-0.1,0-0.2,0-0.3,0c-0.1,0-0.2,0.1-0.3,0.2
	c-0.1,0.2-0.1,0.4,0,0.6c0,0.2,0.1,0.4,0.3,0.5c0.1,0.1,0.2,0.1,0.4,0.1c0.1,0,0.2-0.1,0.2-0.1c0.1-0.1,0.1-0.2,0.1-0.4h0.6
	c0,0.2-0.1,0.5-0.2,0.7c-0.2,0.2-0.4,0.3-0.6,0.4c-0.3,0.1-0.6,0-0.8-0.1c-0.2-0.2-0.4-0.5-0.5-0.8c-0.1-0.3-0.1-0.6,0.1-0.9
	c0.3-0.4,0.8-0.6,1.3-0.4C139.5,126.5,139.7,126.7,139.8,126.9z"/>
<path class="st0" d="M140.2,127.2c0-0.2,0-0.4,0-0.6c0-0.2,0.1-0.4,0.3-0.5c0.1-0.1,0.3-0.2,0.5-0.3c0.3-0.1,0.6,0,0.9,0.1
	c0.3,0.2,0.4,0.5,0.5,0.8c0.1,0.3,0,0.6-0.1,0.9c-0.1,0.3-0.4,0.5-0.7,0.5c-0.2,0-0.4,0-0.6,0c-0.2-0.1-0.4-0.2-0.5-0.3
	C140.3,127.7,140.2,127.5,140.2,127.2z M140.7,127.1c0,0.2,0.1,0.4,0.3,0.5c0.1,0.1,0.3,0.1,0.4,0.1c0.1,0,0.3-0.1,0.3-0.3
	c0.1-0.2,0.1-0.4,0-0.6c0-0.2-0.1-0.4-0.3-0.5c-0.1-0.1-0.3-0.1-0.4-0.1c-0.1,0-0.3,0.1-0.3,0.3
	C140.7,126.7,140.7,126.9,140.7,127.1L140.7,127.1z"/>
<path class="st0" d="M144.4,127.4l-0.1-0.3c0,0.1-0.1,0.3-0.2,0.4c-0.1,0.1-0.2,0.2-0.4,0.2c-0.1,0-0.3,0-0.4,0
	c-0.1,0-0.2-0.1-0.3-0.2c-0.1-0.1-0.2-0.3-0.2-0.5l-0.4-1.4l0.5-0.2l0.3,1c0,0.2,0.1,0.4,0.2,0.6c0,0.1,0.1,0.1,0.1,0.1
	c0.1,0,0.1,0,0.2,0c0.1,0,0.1,0,0.2-0.1c0.1-0.1,0.1-0.2,0.1-0.3c0-0.2-0.1-0.4-0.1-0.6l-0.3-0.9l0.6-0.2l0.6,2.2L144.4,127.4z"/>
<path class="st0" d="M147.4,126.5l-0.5,0.2l-0.3-1.1c0-0.2-0.1-0.3-0.2-0.5c0-0.1-0.1-0.1-0.2-0.1c-0.1,0-0.1,0-0.2,0
	c-0.1,0-0.2,0.1-0.2,0.2c-0.1,0.1-0.1,0.2-0.1,0.3c0,0.2,0.1,0.4,0.1,0.5l0.3,1l-0.5,0.2l-0.7-2.2l0.5-0.2l0.1,0.3
	c0.1-0.3,0.3-0.5,0.6-0.6c0.1,0,0.2,0,0.4,0c0.1,0,0.2,0.1,0.3,0.1c0.1,0.1,0.1,0.1,0.2,0.2c0.1,0.1,0.1,0.3,0.1,0.4L147.4,126.5z"
	/>
<path class="st0" d="M148.1,123.8l0.1,0.5l-0.4,0.1l0.3,0.9c0,0.1,0.1,0.2,0.1,0.3c0,0,0,0,0.1,0.1h0.1c0.1,0,0.1-0.1,0.2-0.1
	l0.2,0.4c-0.1,0.1-0.3,0.2-0.4,0.2c-0.1,0-0.2,0-0.3,0c-0.1,0-0.2,0-0.2-0.1c-0.1-0.1-0.1-0.1-0.1-0.2c0-0.1-0.1-0.2-0.1-0.4l-0.3-1
	l-0.2,0.1l-0.1-0.5l0.2-0.1l-0.1-0.4l0.4-0.5l0.3,0.8L148.1,123.8z"/>
<path class="st0" d="M149.1,124.2l-0.5,0.1c0-0.2,0-0.4,0.1-0.6c0.1-0.2,0.3-0.3,0.5-0.3c0.2-0.1,0.4-0.1,0.6-0.1
	c0.1,0,0.2,0.1,0.3,0.2c0.1,0.1,0.2,0.3,0.3,0.5l0.2,0.7c0,0.1,0.1,0.3,0.2,0.4c0.1,0.1,0.1,0.2,0.2,0.3l-0.5,0.2
	c0-0.1-0.1-0.1-0.1-0.2v-0.1c-0.1,0.1-0.1,0.2-0.2,0.3c-0.1,0.1-0.2,0.1-0.3,0.2c-0.3,0.1-0.7,0-0.9-0.3c0,0,0-0.1,0-0.1
	c0-0.1,0-0.2,0-0.4c0-0.1,0.1-0.2,0.1-0.3c0.1-0.1,0.2-0.2,0.4-0.3c0.2-0.1,0.3-0.2,0.5-0.3V124c0-0.1-0.1-0.2-0.1-0.2
	c-0.1,0-0.2,0-0.3,0c-0.1,0-0.1,0.1-0.2,0.1C149.2,124,149.1,124.1,149.1,124.2z M150,124.5l-0.3,0.2c-0.1,0-0.2,0.1-0.3,0.2
	c0,0.1,0,0.2,0,0.2c0,0.1,0.1,0.1,0.2,0.2c0.1,0,0.2,0,0.2,0c0.2-0.1,0.3-0.2,0.3-0.4C150.2,124.8,150.1,124.7,150,124.5L150,124.5z
	"/>
<path class="st0" d="M151.4,125.2l-1.1-3l0.5-0.2l0.4,1.1c0.1-0.2,0.2-0.4,0.5-0.5c0.2-0.1,0.5-0.1,0.7,0.1c0.3,0.2,0.5,0.4,0.5,0.7
	c0.1,0.3,0.2,0.7,0.1,1c-0.1,0.2-0.3,0.4-0.5,0.5c-0.1,0-0.2,0-0.4,0c-0.1,0-0.3-0.1-0.4-0.2l0.1,0.3L151.4,125.2z M151.5,123.8
	c0.1,0.2,0.2,0.3,0.3,0.5c0.1,0.2,0.4,0.2,0.6,0c0.1-0.1,0.1-0.1,0.1-0.2c0-0.2,0-0.4-0.1-0.6c-0.1-0.2-0.2-0.4-0.3-0.5
	c-0.2-0.1-0.5-0.1-0.6,0.1c0,0,0,0.1-0.1,0.1C151.4,123.5,151.5,123.7,151.5,123.8z"/>
<path class="st0" d="M152.9,121.8l-0.2-0.5l0.5-0.2l0.2,0.5L152.9,121.8z M153.9,124.3l-0.9-2.2l0.5-0.2l0.9,2.2L153.9,124.3z"/>
<path class="st0" d="M154.9,123.8l-1.2-3l0.5-0.2l1.2,3L154.9,123.8z"/>
<path class="st0" d="M155,121l-0.2-0.5l0.5-0.2l0.2,0.5L155,121z M156,123.4l-0.9-2.1l0.5-0.2l0.9,2.1L156,123.4z"/>
<path class="st0" d="M157.1,120.4l0.2,0.4l-0.4,0.2l0.4,0.9c0,0.1,0.1,0.2,0.1,0.3h0.1c0,0,0.1,0,0.1,0c0.1,0,0.1-0.1,0.2-0.2
	l0.2,0.4c-0.1,0.1-0.2,0.2-0.4,0.3c-0.1,0-0.2,0.1-0.3,0.1c-0.2,0-0.3-0.1-0.4-0.3c-0.1-0.1-0.1-0.3-0.2-0.4l-0.4-0.9l-0.2,0.1
	l-0.2-0.4l0.2-0.1l-0.2-0.4l0.4-0.6l0.3,0.8L157.1,120.4z"/>
<path class="st0" d="M157.1,120.4l0.6-0.3l1.2,1.3l-0.3-1.7l0.5-0.3l0.3,2.3v0.4c0,0.1,0,0.2,0,0.3c0,0.1,0,0.2-0.1,0.2
	c0,0.1-0.1,0.1-0.1,0.2c-0.1,0.1-0.2,0.1-0.3,0.2c-0.1,0-0.2,0.1-0.3,0.1l-0.3-0.4l0.2-0.1c0.1,0,0.2-0.1,0.2-0.2c0-0.1,0-0.2,0-0.3
	L157.1,120.4z"/>
</svg>
