<svg id="Layer_1" data-name="Layer 1" xmlns="http://www.w3.org/2000/svg" viewBox="0 0 223.66 211.4"><defs><style>.cls-1{fill:#92782d;}.cls-2{fill:#221f1f;}.cls-3{fill:#8ac441;}.cls-4{fill:#3db34a;}.cls-5{fill:#fff;}.cls-6{fill:#056939;}.cls-7{fill:#b08e2f;}.cls-8{fill:#b4902f;}.cls-9{fill:#076233;}</style></defs><path d="M12.45,165.82l7.63-20.58h5.09l7.55,20.58H27.87l-1.36-4.24H18.63l-1.48,4.24Zm7.37-7.8h5.44l-2.66-8.15h-.05Z"/><path d="M53.12,151.61h-4.4a4.18,4.18,0,0,0-1.62-2.36,5.28,5.28,0,0,0-3.11-.82,6.2,6.2,0,0,0-3.4.92,5.85,5.85,0,0,0-2.22,2.75,9.55,9.55,0,0,0-.61,3.65,8.58,8.58,0,0,0,.72,3.73,5.28,5.28,0,0,0,2.14,2.32,6.47,6.47,0,0,0,5.69.32,4.63,4.63,0,0,0,1.92-1.57,5.41,5.41,0,0,0,1-2.36H44.28v-3.46h8.91v11.09h-3l-.45-2.59A11.11,11.11,0,0,1,48,165a7.06,7.06,0,0,1-2.1,1,9.64,9.64,0,0,1-2.76.38,10.63,10.63,0,0,1-3.49-.6,8.74,8.74,0,0,1-3.17-2,9.58,9.58,0,0,1-2.29-3.4,12.17,12.17,0,0,1-.84-4.68,12.41,12.41,0,0,1,1.31-5.81,9.3,9.3,0,0,1,3.66-3.84,10.78,10.78,0,0,1,5.48-1.34,12.14,12.14,0,0,1,4.48.81,8.13,8.13,0,0,1,2.54,1.52,7,7,0,0,1,1.59,2A7.81,7.81,0,0,1,53.12,151.61Z"/><path d="M54.32,165.82,62,145.24h5.1l7.54,20.58H69.74l-1.36-4.24H60.5L59,165.82Zm7.37-7.8h5.44l-2.65-8.15h-.06Z"/><path d="M87.73,165.82V145.24h4.46v7.82h8.39v-7.82H105v20.58h-4.44v-9.2H92.19v9.2Z"/><path d="M110.47,165.82V145.24H126.3v3.54H114.92v4.56h10.47v3.56H114.92v5.36h11.89v3.56Z"/><path d="M129.72,165.82l7.64-20.58h5.09L150,165.82h-4.85l-1.37-4.24H135.9l-1.48,4.24Zm7.37-7.8h5.45l-2.66-8.15h-.06Z"/><path d="M153.78,165.82V145.24h4.45v16.87h10.61v3.71Z"/><path d="M164.73,148.78v-3.54H182.2v3.54h-6.51v17h-4.44v-17Z"/><path d="M185.74,165.82V145.24h4.46v7.82h8.39v-7.82H203v20.58h-4.44v-9.2H190.2v9.2Z"/><path class="cls-1" d="M53.31,181.71v-8.56H59.4v1.47H55.1v2h3.76v1.47H55.1v3.61Z"/><path class="cls-1" d="M64.26,177.43a5.56,5.56,0,0,1,.49-2.4,3.41,3.41,0,0,1,1.45-1.57,4.32,4.32,0,0,1,2.11-.53,4.19,4.19,0,0,1,2.23.59A3.6,3.6,0,0,1,72,175.15a5.34,5.34,0,0,1,.49,2.28,5.26,5.26,0,0,1-.52,2.35,3.72,3.72,0,0,1-1.5,1.61,4.47,4.47,0,0,1-2.15.53,4.22,4.22,0,0,1-2.15-.55,3.39,3.39,0,0,1-1.43-1.6A5.56,5.56,0,0,1,64.26,177.43Zm4.11,2.95a2.18,2.18,0,0,0,1.19-.35,2.14,2.14,0,0,0,.84-1,3.94,3.94,0,0,0,.3-1.56,4,4,0,0,0-.29-1.55,2.18,2.18,0,0,0-.84-1,2.18,2.18,0,0,0-3.24,1,4,4,0,0,0-.29,1.55,4.19,4.19,0,0,0,.28,1.52,2.21,2.21,0,0,0,.82,1.06A2.14,2.14,0,0,0,68.37,180.38Z"/><path class="cls-1" d="M82.44,173.15h1.78v5.24a7,7,0,0,1-.08,1.19,3,3,0,0,1-.41,1,2.42,2.42,0,0,1-.69.7,3.23,3.23,0,0,1-1,.43,4.77,4.77,0,0,1-1.3.16,5,5,0,0,1-1.38-.18,3.07,3.07,0,0,1-1-.52,2.6,2.6,0,0,1-.64-.74,3.2,3.2,0,0,1-.33-1,6.93,6.93,0,0,1-.06-1.06v-5.24h1.79v5.44a3.24,3.24,0,0,0,.11.95,1.18,1.18,0,0,0,.49.59,1.87,1.87,0,0,0,1.06.25,2,2,0,0,0,1-.19,1.21,1.21,0,0,0,.51-.54,2.65,2.65,0,0,0,.16-1.06Z"/><path class="cls-1" d="M89.87,181.71v-8.56h1.87l3.43,6v-6h1.67v8.56H95l-3.5-6.1v6.1Z"/><path class="cls-1" d="M102.47,181.71v-8.56h3.74a3.22,3.22,0,0,1,2.53.94,4.52,4.52,0,0,1,1,3.19,7.29,7.29,0,0,1-.21,1.8,4.49,4.49,0,0,1-.57,1.36,2.47,2.47,0,0,1-.77.8,2.71,2.71,0,0,1-.93.37,9.84,9.84,0,0,1-1.58.1Zm1.79-7.09v5.61h1.56a2.52,2.52,0,0,0,.93-.15,1.56,1.56,0,0,0,.6-.41,2,2,0,0,0,.37-.72,5.93,5.93,0,0,0,.23-1.65,4.38,4.38,0,0,0-.15-1.18,2.3,2.3,0,0,0-.41-.89,1.5,1.5,0,0,0-.61-.47,2.71,2.71,0,0,0-1-.14Z"/><path class="cls-1" d="M113.45,181.71l3.06-8.56h2l3,8.56h-1.94l-.55-1.77h-3.16l-.59,1.77Zm3-3.25h2.18l-1.07-3.38h0Z"/><path class="cls-1" d="M123.92,174.62v-1.47h7v1.47h-2.61v7.09h-1.78v-7.09Z"/><path class="cls-1" d="M135.81,181.71v-8.56h1.78v8.56Z"/><path class="cls-1" d="M142.85,177.43a5.57,5.57,0,0,1,.5-2.4,3.41,3.41,0,0,1,1.45-1.57,4.29,4.29,0,0,1,2.11-.53,4.22,4.22,0,0,1,2.23.59,3.65,3.65,0,0,1,1.45,1.63,5.34,5.34,0,0,1,.49,2.28,5.27,5.27,0,0,1-.53,2.35,3.61,3.61,0,0,1-1.5,1.61,4.44,4.44,0,0,1-2.14.53,4.2,4.2,0,0,1-2.15-.55,3.34,3.34,0,0,1-1.43-1.6A5.56,5.56,0,0,1,142.85,177.43Zm4.12,2.95a2.18,2.18,0,0,0,1.19-.35,2.26,2.26,0,0,0,.84-1,4.13,4.13,0,0,0,.29-1.56,3.86,3.86,0,0,0-.29-1.55,2.17,2.17,0,0,0-4.07,0,4,4,0,0,0-.29,1.55,4,4,0,0,0,.28,1.52,2.21,2.21,0,0,0,.82,1.06A2.1,2.1,0,0,0,147,180.38Z"/><path class="cls-1" d="M156.4,181.71v-8.56h1.87l3.42,6v-6h1.67v8.56h-1.79l-3.5-6.1v6.1Z"/><rect class="cls-2" x="12.94" y="138.7" width="190.27" height="0.77"/><circle class="cls-3" cx="106.39" cy="93.2" r="1.12"/><path class="cls-3" d="M106.77,25.27S161,61.86,167.44,122.59l-60.84-29Z"/><path class="cls-4" d="M106.68,25.27S51.17,60,44.77,120.73L106.6,92.8Z"/><path class="cls-5" d="M105.61,40.57S63.66,65.9,59.27,114.07L105.61,92.8Z"/><path class="cls-5" d="M106.77,40.57s41.94,26.22,46.34,74.4L106.77,92.62Z"/><path class="cls-6" d="M44.77,120.73s54.76,29.15,122.67,1.86L106,93.08Z"/><path class="cls-5" d="M59.16,115.46s45.35,22.32,93.72.14l-46-22.09Z"/><polygon class="cls-6" points="118.13 107.4 109.13 107.4 109.13 99.54 103.75 99.54 103.75 107.4 95.07 107.4 95.07 112.77 103.75 112.77 103.75 120.63 109.13 120.63 109.13 112.77 118.13 112.77 118.13 107.4"/><polygon class="cls-5" points="112.8 82.45 109.75 87.88 119.88 92.82 119.46 85.3 112.8 82.45"/><path class="cls-7" d="M119.88,93.05a.23.23,0,0,1-.11,0l-10.13-4.93a.28.28,0,0,1-.12-.14.22.22,0,0,1,0-.18l3-5.43a.23.23,0,0,1,.3-.1l6.66,2.84a.21.21,0,0,1,.14.2l.42,7.52A.25.25,0,0,1,120,93,.17.17,0,0,1,119.88,93.05Zm-9.81-5.27,9.55,4.65-.38-7-6.34-2.7Z"/><path class="cls-8" d="M111.66,87.93a17.11,17.11,0,0,0,6.72-1.7l.51,4.91Z"/><polygon class="cls-5" points="140.71 84.49 137.55 78.17 132.49 76.43 113.13 82.41 119.46 85.3 120.03 92.75 140.71 84.49"/><path class="cls-7" d="M119.82,93.09l-.58-7.64-6.77-3.08,20-6.18,5.23,1.8L141,84.62Zm-6-10.64,5.9,2.69.56,7.28,20.14-8-3-6-4.91-1.68Z"/><polygon class="cls-8" points="127.78 88.68 121.27 90.93 120.96 86.15 124.06 85.04 123.33 84.18 119.55 85.53 119.35 85.04 135.3 79.22 134.53 77.83 135.3 77.56 137.08 78.01 137.84 78.73 135.5 79.69 137.59 85.11 127.78 88.68"/><polygon class="cls-5" points="120.36 74.41 131.88 72.01 140.45 87.42 140.71 89.84 131.47 94.53 120.36 74.41"/><path class="cls-7" d="M131.37,94.84,120,74.24l12-2.49,8.68,15.64L141,90ZM120.72,74.57l10.84,19.65,8.9-4.51-.24-2.22-8.46-15.22Z"/><rect class="cls-7" x="133.76" y="88.5" width="7.01" height="0.47" transform="translate(-24.58 65.94) rotate(-24.86)"/><polygon class="cls-8" points="133.83 92.09 134.53 90.98 139.75 88.58 139.75 89.37 133.83 92.09"/><polygon class="cls-5" points="120.6 74.44 124.89 73.56 134.09 90.2 131.45 94.19 120.6 74.44"/><path class="cls-7" d="M131.43,94.63,120.24,74.28l4.77-1,9.35,16.92ZM121,74.61l10.51,19.13,2.35-3.55-9-16.37Z"/><polygon class="cls-8" points="123.08 77.13 132.49 90.88 131.66 92.63 123.08 77.13"/><path class="cls-9" d="M96.4,70.24a1,1,0,0,0-.84-1,.88.88,0,1,0-.48,1.64,1.17,1.17,0,0,0,1.1-.2c2.18,2.2,0,4.77-.74,5.51a.62.62,0,0,0-.74.06c-2.52,2.26-6.64,5.77-7.65,6.2a3.3,3.3,0,0,1-2.65-.19,2.58,2.58,0,0,1-1.34-1.91c-.46-2.55,1.09-8.41,1.11-8.46a.64.64,0,0,0-.33-.71c.2-1.3,1.06-4.88,4.23-4.12a1.11,1.11,0,0,0,.83.84.88.88,0,1,0,.48-1.64,1.1,1.1,0,0,0-1.17.28c-.46-.11-4.08-.84-4.79,4.59a.61.61,0,0,0-.45.44c-.07.25-1.64,6.18-1.13,9a3.83,3.83,0,0,0,2,2.78l.1,0a9.4,9.4,0,0,1-3.1,4.26C79.07,89,75.85,91.4,76,94c.07,1.31.94,2.49,2.6,3.51a4.67,4.67,0,0,0,2.41.78A3,3,0,0,0,82.33,98c2.66-1.3,3.24-6.26,3.26-6.5,0,0,.14-2.54,1.43-3.43a2.07,2.07,0,0,1,1.8-.18A2.49,2.49,0,0,0,89.3,90a.37.37,0,1,0,.58-.46,1.74,1.74,0,1,1,1.46.65.37.37,0,0,0-.35.39.37.37,0,0,0,.37.35h0a2.48,2.48,0,0,0,2.25-3.19,2.46,2.46,0,0,0-1.2-1.48,2.48,2.48,0,0,0-3.21.75,3,3,0,0,0-2.73.28c-1.67,1.15-1.82,4-1.82,4.12s-.55,4.66-2.75,5.73a2.93,2.93,0,0,1-2.87-.43C77.67,95.91,77,95,76.9,94c-.1-2.14,2.87-4.37,4.46-5.57a10.08,10.08,0,0,0,3.42-4.67A4.89,4.89,0,0,0,86,83.9a4.11,4.11,0,0,0,1.57-.29c1.52-.64,7.34-5.83,8-6.41a.63.63,0,0,0,.17-.67C99.05,73.33,97,70.87,96.4,70.24Z"/><path class="cls-5" d="M52.61,120.35l.57.12a.82.82,0,0,0,.06.51.61.61,0,0,0,.36.28.64.64,0,0,0,.45,0,.4.4,0,0,0,.24-.25.34.34,0,0,0,0-.2.45.45,0,0,0-.16-.2,3.5,3.5,0,0,0-.41-.28,1.63,1.63,0,0,1-.53-.52.86.86,0,0,1-.06-.7,1,1,0,0,1,.27-.39.83.83,0,0,1,.45-.19,1.42,1.42,0,0,1,.59.08,1.17,1.17,0,0,1,.71.51,1,1,0,0,1,.06.77l-.58-.16a.59.59,0,0,0,0-.39.61.61,0,0,0-.33-.23.68.68,0,0,0-.42,0,.24.24,0,0,0-.15.16.24.24,0,0,0,0,.22,1.46,1.46,0,0,0,.45.37,3.23,3.23,0,0,1,.54.43.89.89,0,0,1,.21.41,1.07,1.07,0,0,1,0,.52,1.11,1.11,0,0,1-.3.45.9.9,0,0,1-.49.21,1.57,1.57,0,0,1-.65-.09,1.24,1.24,0,0,1-.73-.54A1.31,1.31,0,0,1,52.61,120.35Z"/><path class="cls-5" d="M56.47,121.92l.5.27a1,1,0,0,1-.48.39,1,1,0,0,1-.61,0,.91.91,0,0,1-.67-.63,1.37,1.37,0,0,1,0-.82,1.33,1.33,0,0,1,.54-.78.85.85,0,0,1,.77-.1.91.91,0,0,1,.61.55,1.58,1.58,0,0,1-.06,1.08l-1.36-.43a.62.62,0,0,0,0,.45.41.41,0,0,0,.26.24.33.33,0,0,0,.24,0A.59.59,0,0,0,56.47,121.92Zm.21-.58a.67.67,0,0,0,0-.42.35.35,0,0,0-.24-.22.37.37,0,0,0-.34,0,.6.6,0,0,0-.23.35Z"/><path class="cls-5" d="M57.8,123.11l-.54-.17.67-2.22.5.15-.09.32a1.15,1.15,0,0,1,.32-.23.57.57,0,0,1,.26,0,.69.69,0,0,1,.32.22l-.32.47a.52.52,0,0,0-.23-.18.3.3,0,0,0-.21,0,.45.45,0,0,0-.2.21,3.37,3.37,0,0,0-.27.73Z"/><path class="cls-5" d="M59.41,123.59l-.17-2.47.57.16,0,1.26V123a1.21,1.21,0,0,0,.11-.18l.12-.17.72-1,.56.16-1.47,2Z"/><path class="cls-5" d="M61.09,124.07l.63-2.23.54.15-.63,2.24Zm.71-2.54L62,121l.54.15-.15.55Z"/><path class="cls-5" d="M64.45,123.3l-.56,0a.48.48,0,0,0-.06-.3.36.36,0,0,0-.22-.15.4.4,0,0,0-.37.06.89.89,0,0,0-.26.48,1.05,1.05,0,0,0,0,.6.44.44,0,0,0,.57.23.69.69,0,0,0,.23-.3l.51.25a1.13,1.13,0,0,1-.49.52,1,1,0,0,1-.69,0,1,1,0,0,1-.64-.51,1.32,1.32,0,0,1,0-.93,1.34,1.34,0,0,1,.5-.79,1,1,0,0,1,.82-.11.88.88,0,0,1,.72,1Z"/><path class="cls-5" d="M65.86,124.6l.52.24a1.07,1.07,0,0,1-.47.41,1,1,0,0,1-.61,0,.93.93,0,0,1-.7-.59,1.46,1.46,0,0,1,0-.83,1.42,1.42,0,0,1,.49-.81,1,1,0,0,1,1.41.39,1.58,1.58,0,0,1,0,1.08l-1.37-.36a.74.74,0,0,0,0,.45.46.46,0,0,0,.28.23.38.38,0,0,0,.24,0A.58.58,0,0,0,65.86,124.6ZM66,124a.59.59,0,0,0,0-.42.37.37,0,0,0-.25-.21.39.39,0,0,0-.33.06.65.65,0,0,0-.22.36Z"/><path class="cls-5" d="M68.26,126l-.11-2.41.53.12,0,1.58.71-1.4L70,124v1.56l.75-1.38.55.13L70,126.39l-.53-.13v-1.54l-.7,1.37Z"/><path class="cls-5" d="M71,126.61l.51-2.26.55.13-.51,2.26Zm.58-2.57.13-.55.55.12-.13.56Z"/><path class="cls-5" d="M73.64,124.82l-.11.48-.37-.09-.21.92a2.65,2.65,0,0,0-.06.32.12.12,0,0,0,0,.09.16.16,0,0,0,.09,0,.68.68,0,0,0,.24,0l-.06.48a1,1,0,0,1-.46,0,.64.64,0,0,1-.25-.11.48.48,0,0,1-.15-.18.65.65,0,0,1,0-.25,2.11,2.11,0,0,1,.07-.43l.22-1-.25,0,.1-.48.26,0,.1-.45.63-.23-.18.81Z"/><path class="cls-5" d="M74.77,124.16l-.24,1.15a.8.8,0,0,1,.71-.2.63.63,0,0,1,.33.15.61.61,0,0,1,.19.24.93.93,0,0,1,0,.29,2.87,2.87,0,0,1-.07.46l-.28,1.33-.55-.11.25-1.21a1.72,1.72,0,0,0,.06-.46.28.28,0,0,0-.07-.17.39.39,0,0,0-.19-.1.45.45,0,0,0-.26,0,.35.35,0,0,0-.21.19,1.56,1.56,0,0,0-.14.42l-.24,1.14-.56-.12.67-3.14Z"/><path class="cls-5" d="M77.2,127.93l.62-3.15.58.12-.62,3.15Z"/><path class="cls-5" d="M80.29,128.52l-.56-.11.22-1.16a2.32,2.32,0,0,0,0-.49.41.41,0,0,0-.08-.19.31.31,0,0,0-.18-.09.45.45,0,0,0-.28,0,.48.48,0,0,0-.2.2,2.22,2.22,0,0,0-.14.52l-.19,1-.56-.1.43-2.28.51.09-.06.34a.86.86,0,0,1,.77-.26.71.71,0,0,1,.32.14.59.59,0,0,1,.2.22,1.27,1.27,0,0,1,.06.28,1.92,1.92,0,0,1,0,.41Z"/><path class="cls-5" d="M82.25,126.51l-.08.48-.38-.07-.16.92a2.06,2.06,0,0,0,0,.33.12.12,0,0,0,0,.09.12.12,0,0,0,.08,0,.53.53,0,0,0,.24,0l0,.48a1.12,1.12,0,0,1-.45,0,.68.68,0,0,1-.26-.11.42.42,0,0,1-.16-.17.61.61,0,0,1,0-.25,4.31,4.31,0,0,1,0-.43l.18-1-.26,0,.09-.48.25,0,.08-.45.63-.26-.15.81Z"/><path class="cls-5" d="M83.62,128.34l.54.2a1,1,0,0,1-.42.45,1,1,0,0,1-.61.07.91.91,0,0,1-.75-.52,1.42,1.42,0,0,1-.08-.83,1.3,1.3,0,0,1,.42-.84.86.86,0,0,1,.75-.21.92.92,0,0,1,.69.46,1.66,1.66,0,0,1,.09,1.08l-1.4-.24a.65.65,0,0,0,.06.45.42.42,0,0,0,.3.2.35.35,0,0,0,.23,0A.49.49,0,0,0,83.62,128.34Zm.13-.61a.58.58,0,0,0-.06-.42.37.37,0,0,0-.26-.18.4.4,0,0,0-.33.09.62.62,0,0,0-.18.38Z"/><path class="cls-5" d="M84.49,129.39l.63.18a.24.24,0,0,0,0,.18.34.34,0,0,0,.24.1.53.53,0,0,0,.34,0,.27.27,0,0,0,.13-.13.84.84,0,0,0,.07-.28l0-.33a.74.74,0,0,1-.69.27.76.76,0,0,1-.61-.49,1.41,1.41,0,0,1-.08-.8,1.38,1.38,0,0,1,.39-.85.84.84,0,0,1,.69-.2.77.77,0,0,1,.59.47l0-.32.52.08-.32,2.06a2.34,2.34,0,0,1-.15.6,1,1,0,0,1-.22.29,1,1,0,0,1-.33.13,1.57,1.57,0,0,1-.48,0,1.11,1.11,0,0,1-.73-.32.65.65,0,0,1-.15-.54S84.49,129.42,84.49,129.39Zm.71-1.27a.85.85,0,0,0,0,.55.4.4,0,0,0,.29.22.45.45,0,0,0,.38-.12.83.83,0,0,0,.22-.49.85.85,0,0,0-.06-.55.41.41,0,0,0-.67-.11A.93.93,0,0,0,85.2,128.12Z"/><path class="cls-5" d="M87.63,129.7l-.56-.08.33-2.3.52.08,0,.33a.91.91,0,0,1,.29-.28.42.42,0,0,1,.25,0,.62.62,0,0,1,.35.16l-.25.51a.46.46,0,0,0-.25-.14.32.32,0,0,0-.21,0,.52.52,0,0,0-.16.24,4.11,4.11,0,0,0-.16.76Z"/><path class="cls-5" d="M88.72,129.86l.31-2.31.56.08-.31,2.3Zm.35-2.62.08-.56.56.07-.08.57Z"/><path class="cls-5" d="M91.16,127.83l-.06.49-.38,0-.12.93a1.25,1.25,0,0,0,0,.33.09.09,0,0,0,0,.08.13.13,0,0,0,.09,0l.23,0v.48a1.16,1.16,0,0,1-.46,0,.54.54,0,0,1-.26-.09.37.37,0,0,1-.16-.17.54.54,0,0,1-.05-.24,3,3,0,0,1,0-.44l.13-1-.26,0,.07-.49.26,0,0-.46.61-.28-.1.81Z"/><path class="cls-5" d="M91.29,127.85l.6.07.31,1.7.69-1.58.59.07-1,2.13-.18.39a1.22,1.22,0,0,1-.18.29.47.47,0,0,1-.17.15.52.52,0,0,1-.23.08.91.91,0,0,1-.29,0,1.57,1.57,0,0,1-.31-.08v-.48a.68.68,0,0,0,.23.05.31.31,0,0,0,.3-.09.74.74,0,0,0,.19-.3Z"/><path class="cls-5" d="M93.35,129.81l.56.06,0,.44a1.67,1.67,0,0,1-.09.42.64.64,0,0,1-.19.25.69.69,0,0,1-.32.16l-.08-.26a.54.54,0,0,0,.26-.14.55.55,0,0,0,.11-.29l-.28,0Z"/><path class="cls-5" d="M95.65,130.67l.29-3.19,1,.09a3.35,3.35,0,0,1,.71.11A.82.82,0,0,1,98,128a1,1,0,0,1,.11.64,1.13,1.13,0,0,1-.14.49,1,1,0,0,1-.28.29.7.7,0,0,1-.32.12,2.62,2.62,0,0,1-.62,0l-.39,0-.11,1.21Zm.83-2.59-.08.9.33,0a1.74,1.74,0,0,0,.47,0,.48.48,0,0,0,.2-.14.5.5,0,0,0,.09-.25.41.41,0,0,0-.07-.29.41.41,0,0,0-.22-.17,2.84,2.84,0,0,0-.43-.06Z"/><path class="cls-5" d="M99,131l-.57-.05.19-2.32.52.05,0,.33a1,1,0,0,1,.27-.29.44.44,0,0,1,.25-.06.64.64,0,0,1,.36.15l-.21.52a.41.41,0,0,0-.26-.12.3.3,0,0,0-.21,0,.49.49,0,0,0-.15.25,3.93,3.93,0,0,0-.11.77Z"/><path class="cls-5" d="M100,129.85a1.23,1.23,0,0,1,.18-.58.92.92,0,0,1,.42-.41,1.13,1.13,0,0,1,1.35.28,1.26,1.26,0,0,1,.25.88,1.31,1.31,0,0,1-.37.86,1.06,1.06,0,0,1-.81.29,1.09,1.09,0,0,1-.55-.18,1,1,0,0,1-.38-.45A1.49,1.49,0,0,1,100,129.85Zm.57.07a.87.87,0,0,0,.12.54.46.46,0,0,0,.36.21.44.44,0,0,0,.38-.16.85.85,0,0,0,.19-.52.87.87,0,0,0-.12-.54.48.48,0,0,0-.74,0A.85.85,0,0,0,100.57,129.92Z"/><path class="cls-5" d="M102.48,128.88l.31,0v-.18a1.37,1.37,0,0,1,.08-.43.49.49,0,0,1,.23-.22.68.68,0,0,1,.39-.07,1.52,1.52,0,0,1,.47.1l-.1.43a.8.8,0,0,0-.26-.05.21.21,0,0,0-.18.05.41.41,0,0,0-.06.24v.16l.42,0,0,.49-.42,0-.1,1.84-.57,0,.11-1.84h-.32Z"/><path class="cls-5" d="M105.28,130.61l.56.13a1,1,0,0,1-.37.49,1,1,0,0,1-.59.15.93.93,0,0,1-.81-.43,1.47,1.47,0,0,1-.18-.81,1.4,1.4,0,0,1,.32-.89.9.9,0,0,1,.72-.3.94.94,0,0,1,.74.38,1.64,1.64,0,0,1,.21,1.06l-1.41-.06a.64.64,0,0,0,.11.43.42.42,0,0,0,.32.16.3.3,0,0,0,.23-.06A.59.59,0,0,0,105.28,130.61Zm.06-.62a.61.61,0,0,0-.11-.41.35.35,0,0,0-.29-.15.37.37,0,0,0-.31.13.57.57,0,0,0-.14.39Z"/><path class="cls-5" d="M106.14,130.72l.57-.08a.47.47,0,0,0,.14.28.45.45,0,0,0,.31.1.51.51,0,0,0,.33-.07.21.21,0,0,0,.08-.17.2.2,0,0,0,0-.11.47.47,0,0,0-.19-.09,2.68,2.68,0,0,1-.86-.33.61.61,0,0,1-.24-.53.7.7,0,0,1,.24-.5,1,1,0,0,1,.68-.18,1.18,1.18,0,0,1,.65.17.83.83,0,0,1,.28.47l-.54.09a.37.37,0,0,0-.12-.21.41.41,0,0,0-.27-.08.62.62,0,0,0-.32.06.13.13,0,0,0-.07.12.14.14,0,0,0,0,.11,1.69,1.69,0,0,0,.53.19,1.48,1.48,0,0,1,.62.3.58.58,0,0,1,.16.46.7.7,0,0,1-.26.54,1,1,0,0,1-.73.21,1.11,1.11,0,0,1-.69-.22A.93.93,0,0,1,106.14,130.72Z"/><path class="cls-5" d="M108.46,130.79l.57-.09a.5.5,0,0,0,.14.28.54.54,0,0,0,.31.1.5.5,0,0,0,.33-.09.19.19,0,0,0,.08-.16.16.16,0,0,0,0-.12.5.5,0,0,0-.19-.08,3.12,3.12,0,0,1-.86-.31.63.63,0,0,1-.25-.53.67.67,0,0,1,.23-.5,1,1,0,0,1,.68-.2,1.1,1.1,0,0,1,.65.17.78.78,0,0,1,.29.46l-.53.1a.44.44,0,0,0-.13-.21.41.41,0,0,0-.27-.08.52.52,0,0,0-.32.07.13.13,0,0,0-.07.12.16.16,0,0,0,0,.11,2.19,2.19,0,0,0,.53.18,1.54,1.54,0,0,1,.63.29.62.62,0,0,1,.17.46.7.7,0,0,1-.26.54,1,1,0,0,1-.73.22,1.11,1.11,0,0,1-.69-.2A.93.93,0,0,1,108.46,130.79Z"/><path class="cls-5" d="M111,131.48v-2.32h.57v2.32Zm0-2.64v-.57h.56v.57Z"/><path class="cls-5" d="M112,130.29a1.24,1.24,0,0,1,.13-.59,1,1,0,0,1,.39-.44,1.11,1.11,0,0,1,.57-.16,1,1,0,0,1,.8.34,1.2,1.2,0,0,1,.31.86,1.23,1.23,0,0,1-.3.88,1,1,0,0,1-.79.35,1.14,1.14,0,0,1-.56-.14.93.93,0,0,1-.41-.42A1.52,1.52,0,0,1,112,130.29Zm.58,0a.82.82,0,0,0,.15.53.48.48,0,0,0,.38.18.46.46,0,0,0,.37-.19.82.82,0,0,0,.14-.53.84.84,0,0,0-.15-.53.48.48,0,0,0-.38-.18.48.48,0,0,0-.37.19A.82.82,0,0,0,112.6,130.32Z"/><path class="cls-5" d="M116.65,131.41h-.57l0-1.18a2,2,0,0,0,0-.49.43.43,0,0,0-.12-.17.28.28,0,0,0-.2-.05.39.39,0,0,0-.26.09.45.45,0,0,0-.16.24,3,3,0,0,0,0,.53l0,1.05-.56,0-.06-2.32.52,0v.34a.86.86,0,0,1,.69-.41.81.81,0,0,1,.35.07.55.55,0,0,1,.24.18,1,1,0,0,1,.12.25,3.13,3.13,0,0,1,0,.41Z"/><path class="cls-5" d="M117.6,129.75l-.52-.07a.91.91,0,0,1,.28-.52A1,1,0,0,1,118,129a1.16,1.16,0,0,1,.57.07.57.57,0,0,1,.27.23,1.27,1.27,0,0,1,.1.55l0,.72a2.31,2.31,0,0,0,0,.45,1,1,0,0,0,.12.3l-.56,0a.93.93,0,0,1-.06-.18s0-.06,0-.07a1,1,0,0,1-.3.24.7.7,0,0,1-.35.09.65.65,0,0,1-.52-.17.64.64,0,0,1-.22-.48.86.86,0,0,1,.07-.36.69.69,0,0,1,.24-.24,1.75,1.75,0,0,1,.44-.17,2.66,2.66,0,0,0,.54-.17v-.06a.34.34,0,0,0-.09-.25.44.44,0,0,0-.31-.06.37.37,0,0,0-.23.07A.42.42,0,0,0,117.6,129.75Zm.78.47-.34.11a.81.81,0,0,0-.3.12.24.24,0,0,0-.1.22.29.29,0,0,0,.09.22.29.29,0,0,0,.23.08.42.42,0,0,0,.29-.12.39.39,0,0,0,.13-.21,2.12,2.12,0,0,0,0-.3Z"/><path class="cls-5" d="M119.57,131.28l-.18-3.21.57,0,.18,3.2Z"/><path class="cls-5" d="M120.58,128.57l0-.56.56,0,0,.57Zm.17,2.64-.15-2.32.57,0,.15,2.32Z"/><path class="cls-5" d="M121.68,130.49l.56-.14a.48.48,0,0,0,.17.26.51.51,0,0,0,.32.07.55.55,0,0,0,.32-.12.24.24,0,0,0,.06-.17.16.16,0,0,0,0-.11.36.36,0,0,0-.2-.06A2.89,2.89,0,0,1,122,130a.62.62,0,0,1-.3-.5.71.71,0,0,1,.18-.52,1,1,0,0,1,.66-.26,1.08,1.08,0,0,1,.67.11.77.77,0,0,1,.33.43l-.53.15a.38.38,0,0,0-.14-.2.47.47,0,0,0-.28-.05.61.61,0,0,0-.32.09.17.17,0,0,0,0,.13.14.14,0,0,0,.07.11,1.78,1.78,0,0,0,.54.13,1.67,1.67,0,0,1,.65.22.64.64,0,0,1,.21.45.7.7,0,0,1-.2.56,1,1,0,0,1-.71.29,1.12,1.12,0,0,1-.71-.14A.92.92,0,0,1,121.68,130.49Z"/><path class="cls-5" d="M124,128.64l.51,0,0,.32a.82.82,0,0,1,.62-.44.74.74,0,0,1,.37.06.7.7,0,0,1,.27.25.94.94,0,0,1,.28-.31.66.66,0,0,1,.33-.12.68.68,0,0,1,.41.06.57.57,0,0,1,.27.28,1.29,1.29,0,0,1,.11.47l.15,1.48-.56.06-.14-1.33a.94.94,0,0,0-.1-.43.25.25,0,0,0-.25-.11.4.4,0,0,0-.22.1.54.54,0,0,0-.13.25,1.57,1.57,0,0,0,0,.48l.11,1.11-.56.06-.13-1.27a1.44,1.44,0,0,0-.08-.43.26.26,0,0,0-.1-.14.27.27,0,0,0-.18,0,.4.4,0,0,0-.23.1.46.46,0,0,0-.12.23,1.93,1.93,0,0,0,0,.49l.11,1.12-.56.06Z"/><path class="cls-5" d="M131.62,129.67l-.27.52a1.78,1.78,0,0,1-.53-.3,1,1,0,0,1-.34.31,1.25,1.25,0,0,1-.46.15,1,1,0,0,1-.87-.22.89.89,0,0,1-.3-.56,1,1,0,0,1,.09-.58,1.46,1.46,0,0,1,.45-.49,1.68,1.68,0,0,1-.28-.34.7.7,0,0,1-.12-.32.63.63,0,0,1,.14-.51.87.87,0,0,1,.58-.29.84.84,0,0,1,.62.13.69.69,0,0,1,.23.86,1.47,1.47,0,0,1-.37.46l.49.52a1.62,1.62,0,0,0,.07-.38l.53.06a3.88,3.88,0,0,1-.08.45.85.85,0,0,1-.09.24l.28.17A1,1,0,0,0,131.62,129.67Zm-1.89-.82a.77.77,0,0,0-.25.3.57.57,0,0,0-.06.31.45.45,0,0,0,.17.31.41.41,0,0,0,.33.08.58.58,0,0,0,.25-.09,1.5,1.5,0,0,0,.24-.22Zm.13-.69L130,128a.36.36,0,0,0,.13-.3.25.25,0,0,0-.11-.19.29.29,0,0,0-.23,0,.35.35,0,0,0-.2.1.25.25,0,0,0-.05.18.48.48,0,0,0,.17.25Z"/><path class="cls-5" d="M135.7,129.39l-.64.11-.38-.68-1.16.2-.11.76-.63.11.59-3.35.62-.11Zm-1.3-1.07-.6-1.1-.19,1.24Z"/><path class="cls-5" d="M137.54,127.35l-.53.22a.44.44,0,0,0-.18-.25.39.39,0,0,0-.27,0,.41.41,0,0,0-.3.22.88.88,0,0,0,0,.55,1.13,1.13,0,0,0,.24.55.42.42,0,0,0,.37.1.34.34,0,0,0,.24-.15.62.62,0,0,0,.08-.37h.56a1.1,1.1,0,0,1-.2.68,1,1,0,0,1-.61.33.88.88,0,0,1-.79-.17,1.25,1.25,0,0,1-.45-.82,1.35,1.35,0,0,1,.1-.93,1,1,0,0,1,.68-.46,1,1,0,0,1,.65.06A1,1,0,0,1,137.54,127.35Z"/><path class="cls-5" d="M139.77,126.86l-.52.23a.45.45,0,0,0-.18-.24.33.33,0,0,0-.28,0,.41.41,0,0,0-.29.22.9.9,0,0,0,0,.55,1,1,0,0,0,.25.54.39.39,0,0,0,.37.09.34.34,0,0,0,.24-.15.71.71,0,0,0,.07-.37H140a1.1,1.1,0,0,1-.19.68,1,1,0,0,1-.6.35.93.93,0,0,1-.8-.15,1.34,1.34,0,0,1-.46-.81,1.38,1.38,0,0,1,.08-.94,1.11,1.11,0,0,1,1.32-.43A1,1,0,0,1,139.77,126.86Z"/><path class="cls-5" d="M140.16,127.23a1.26,1.26,0,0,1,0-.61,1,1,0,0,1,.28-.52,1.05,1.05,0,0,1,.52-.28,1,1,0,0,1,.85.14,1.32,1.32,0,0,1,.51.77,1.25,1.25,0,0,1-.1.92,1,1,0,0,1-.68.53,1.26,1.26,0,0,1-.58,0,1,1,0,0,1-.5-.31A1.53,1.53,0,0,1,140.16,127.23Zm.57-.11a.75.75,0,0,0,.27.48.43.43,0,0,0,.4.09.44.44,0,0,0,.32-.26.81.81,0,0,0,0-.56.75.75,0,0,0-.27-.47.43.43,0,0,0-.4-.09.44.44,0,0,0-.32.26A.78.78,0,0,0,140.73,127.12Z"/><path class="cls-5" d="M144.39,127.38l-.09-.33a.75.75,0,0,1-.22.36.82.82,0,0,1-.36.21.77.77,0,0,1-.4,0,.58.58,0,0,1-.31-.22,1.39,1.39,0,0,1-.21-.47l-.38-1.42.54-.15.28,1a3.1,3.1,0,0,0,.19.57.29.29,0,0,0,.15.14.33.33,0,0,0,.22,0A.41.41,0,0,0,144,127a.49.49,0,0,0,.1-.25,3,3,0,0,0-.13-.61l-.25-.95.55-.15.6,2.24Z"/><path class="cls-5" d="M147.35,126.52l-.54.17-.34-1.14a2.43,2.43,0,0,0-.17-.46.43.43,0,0,0-.17-.13.34.34,0,0,0-.2,0,.42.42,0,0,0-.23.16.44.44,0,0,0-.09.27,2.39,2.39,0,0,0,.11.52l.3,1-.54.16-.66-2.23.5-.15.1.33a.84.84,0,0,1,.56-.58,1.06,1.06,0,0,1,.35,0,.56.56,0,0,1,.28.12.74.74,0,0,1,.18.21,2,2,0,0,1,.15.39Z"/><path class="cls-5" d="M148.15,123.83l.15.47-.37.11.29.9a2.54,2.54,0,0,0,.11.31.2.2,0,0,0,.07.06h.1a.73.73,0,0,0,.2-.13l.19.44a1,1,0,0,1-.4.22.53.53,0,0,1-.27,0,.44.44,0,0,1-.22-.09.69.69,0,0,1-.15-.2c0-.07-.08-.2-.15-.41l-.31-1-.24.08-.15-.47.24-.08-.14-.44.44-.52.25.79Z"/><path class="cls-5" d="M149.13,124.25l-.51.07a.87.87,0,0,1,.12-.57,1,1,0,0,1,.54-.35,1.07,1.07,0,0,1,.57-.09.56.56,0,0,1,.32.15,1.19,1.19,0,0,1,.25.49l.23.68a1.85,1.85,0,0,0,.17.42,1.17,1.17,0,0,0,.2.27l-.53.18a1.42,1.42,0,0,1-.11-.16l0-.06a1.07,1.07,0,0,1-.22.32.79.79,0,0,1-.31.18.65.65,0,0,1-.89-.42.74.74,0,0,1,0-.36.61.61,0,0,1,.15-.3,1.62,1.62,0,0,1,.38-.28,3,3,0,0,0,.47-.32l0-.06a.32.32,0,0,0-.15-.21.52.52,0,0,0-.32,0,.45.45,0,0,0-.2.14A.48.48,0,0,0,149.13,124.25Zm.88.23-.29.2a.79.79,0,0,0-.26.2.3.3,0,0,0,0,.24.31.31,0,0,0,.16.18.29.29,0,0,0,.24,0,.44.44,0,0,0,.31-.44,1.94,1.94,0,0,0-.08-.29Z"/><path class="cls-5" d="M151.43,125.17l-1.12-3,.53-.2.4,1.09a.77.77,0,0,1,.47-.52.83.83,0,0,1,.72.06,1.36,1.36,0,0,1,.54.74,1.41,1.41,0,0,1,.08,1,.77.77,0,0,1-.49.52.65.65,0,0,1-.37,0,1.11,1.11,0,0,1-.39-.17l.12.32Zm.1-1.33a1.07,1.07,0,0,0,.29.46.4.4,0,0,0,.69-.18.91.91,0,0,0-.07-.56,1,1,0,0,0-.32-.49.42.42,0,0,0-.64.23A.81.81,0,0,0,151.53,123.84Z"/><path class="cls-5" d="M152.87,121.81l-.21-.53.53-.21.21.53Zm1,2.45L153,122.1l.53-.2.85,2.16Z"/><path class="cls-5" d="M154.93,123.83l-1.21-3,.52-.21,1.21,3Z"/><path class="cls-5" d="M155,121l-.23-.52.53-.22.22.52Zm1,2.43-.9-2.14.52-.22.91,2.14Z"/><path class="cls-5" d="M157.06,120.4l.19.45-.35.15.38.86a2.34,2.34,0,0,0,.14.3l.08,0a.18.18,0,0,0,.1,0,.54.54,0,0,0,.18-.15l.24.42a1,1,0,0,1-.37.26.61.61,0,0,1-.28.07.43.43,0,0,1-.39-.25,3.59,3.59,0,0,1-.19-.39l-.41-.93-.24.11-.19-.45.23-.11-.18-.42.37-.56.33.75Z"/><path class="cls-5" d="M157.15,120.36l.55-.25,1.16,1.28-.25-1.71.54-.25.26,2.35,0,.42a1.35,1.35,0,0,1,0,.34.78.78,0,0,1-.07.23.6.6,0,0,1-.15.18,1.2,1.2,0,0,1-.25.16,1.76,1.76,0,0,1-.3.1l-.25-.42.23-.07a.35.35,0,0,0,.21-.24.84.84,0,0,0,0-.35Z"/></svg>